<svg xmlns="http://www.w3.org/2000/svg" xmlns:xlink="http://www.w3.org/1999/xlink" width="500" zoomAndPan="magnify" viewBox="0 0 375 374.999991" height="500" preserveAspectRatio="xMidYMid meet" version="1.0"><defs><g/><clipPath id="c2b5f35080"><path d="M 63.976562 206.894531 L 305.714844 206.894531 L 305.714844 234.582031 L 63.976562 234.582031 Z M 63.976562 206.894531 " clip-rule="nonzero"/></clipPath><clipPath id="39c995249d"><path d="M 77.824219 206.894531 L 291.792969 206.894531 C 295.464844 206.894531 298.984375 208.351562 301.582031 210.949219 C 304.179688 213.546875 305.636719 217.066406 305.636719 220.738281 C 305.636719 224.410156 304.179688 227.929688 301.582031 230.527344 C 298.984375 233.125 295.464844 234.582031 291.792969 234.582031 L 77.824219 234.582031 C 74.152344 234.582031 70.628906 233.125 68.03125 230.527344 C 65.4375 227.929688 63.976562 224.410156 63.976562 220.738281 C 63.976562 217.066406 65.4375 213.546875 68.03125 210.949219 C 70.628906 208.351562 74.152344 206.894531 77.824219 206.894531 Z M 77.824219 206.894531 " clip-rule="nonzero"/></clipPath><clipPath id="eb5ca4fe8f"><path d="M 51.273438 50.917969 L 334.023438 50.917969 L 334.023438 333.667969 L 51.273438 333.667969 Z M 51.273438 50.917969 " clip-rule="nonzero"/></clipPath></defs><path stroke-linecap="butt" transform="matrix(0.796661, 0, 0, 0.796661, 96.637455, -0.962274)" fill="none" stroke-linejoin="miter" d="M 163.214532 257.678808 C 163.214532 267.161751 161.292447 275.521842 157.448276 282.759082 C 153.604105 289.996322 148.612567 296.282326 142.473661 301.6269 C 136.334756 306.966572 129.421132 311.457975 121.737693 315.101112 C 114.049351 318.744248 106.361009 321.666603 98.677571 323.858369 C 90.989229 326.055038 83.653923 327.62899 76.66675 328.575323 C 69.679577 329.526559 63.839772 330.002177 59.147334 330.002177 L 18.116693 330.002177 C 19.617096 329.899209 20.965498 329.45301 22.161898 328.653776 C 23.358298 327.854541 24.4076 326.780723 25.3049 325.432321 C 26.2022 324.083919 26.976918 322.588419 27.624151 320.940917 C 28.276287 319.293416 28.849971 317.572365 29.350106 315.772861 C 30.44844 311.781592 31.095673 307.138186 31.296707 301.847548 C 31.595807 295.36051 31.992973 284.828266 32.493108 270.25572 C 32.694142 264.067781 32.944209 256.678539 33.243309 248.092898 C 33.542409 239.507256 33.866026 229.529082 34.214159 218.148571 C 34.562291 206.76806 34.988877 193.838113 35.489011 179.363632 C 35.984242 164.889152 36.53341 148.669104 37.136513 130.698586 C 33.43944 130.89962 29.22262 131.051622 24.481149 131.149687 C 19.739678 131.247753 14.424523 131.19872 8.535685 131.002589 L 36.53341 115.277772 C 39.931382 115.576872 43.525486 115.82694 47.315721 116.027974 C 51.110859 116.224105 54.852061 116.327074 58.549133 116.327074 C 62.241303 116.327074 65.732438 116.302558 69.027441 116.253525 C 72.322445 116.199589 75.21538 116.077007 77.711149 115.875972 C 80.608987 115.679841 83.300887 115.478807 85.796656 115.277772 C 93.087833 115.277772 100.496688 115.875972 108.033028 117.077276 C 115.569368 118.273676 122.384926 120.494861 128.474799 123.735929 C 134.564672 126.9819 139.55621 131.49782 143.449414 137.288593 C 147.342618 143.079366 149.289219 150.566673 149.289219 159.750515 C 148.789085 166.737688 146.842483 173.327695 143.449414 179.515634 C 141.94901 182.212437 140.105377 184.928854 137.908708 187.674691 C 135.712039 190.420527 132.990719 193.038878 129.744748 195.534647 C 126.503681 198.030416 122.684026 200.330054 118.290688 202.423755 C 113.89735 204.522358 108.807746 206.267925 103.016973 207.66536 C 104.713508 207.464326 106.336493 207.317227 107.885929 207.214258 C 109.430462 207.116193 111.004415 207.06716 112.602884 207.06716 C 118.888888 207.06716 124.45411 207.787942 129.29855 209.239313 C 134.138086 210.68578 138.33039 212.607866 141.875461 215.000666 C 145.420532 217.398369 148.411532 220.119689 150.858269 223.164626 C 153.305005 226.209562 155.325156 229.279015 156.923625 232.372984 C 160.615794 239.860292 162.714398 248.293932 163.214532 257.678808 Z M 57.94603 293.16384 C 57.548865 296.458844 56.798663 299.601846 55.700328 302.59775 C 54.803028 305.191584 53.582112 307.74129 52.032675 310.237059 C 50.488142 312.732828 48.463088 314.527428 45.967319 315.625763 C 55.950395 316.523063 64.487005 317.145779 71.572243 317.498815 C 78.662385 317.846948 84.453158 318.023466 88.944562 318.023466 C 91.239296 318.023466 93.259447 317.994047 95.009918 317.945014 C 96.755485 317.895981 98.177436 317.822432 99.275771 317.719463 C 100.57514 317.621397 101.619538 317.523332 102.418773 317.420363 C 105.512742 317.023197 108.807746 315.674795 112.303784 313.380061 C 115.794919 311.085326 119.089922 308.015873 122.183892 304.171702 C 125.277861 300.327531 127.950148 295.860644 130.19585 290.77104 C 132.441552 285.676533 133.912536 280.037762 134.613705 273.849823 C 135.511005 265.563282 135.089323 258.125007 133.338852 251.539903 C 131.593285 244.949896 128.523832 239.360157 124.130494 234.765785 C 119.737155 230.176315 114.024835 226.655761 106.988629 224.209024 C 99.94752 221.767191 91.587429 220.541371 81.903453 220.541371 C 80.206918 220.541371 78.412318 220.590404 76.514749 220.693373 C 74.61718 220.791439 72.719611 220.94344 70.826945 221.139571 C 77.313983 218.045602 83.501922 215.103635 89.39076 212.308766 C 95.284502 209.513896 100.447655 206.145343 104.890026 202.198204 C 109.332397 198.255967 112.852951 193.391914 115.446786 187.601141 C 118.040621 181.810369 119.33999 174.372094 119.33999 165.291221 C 119.33999 160.098648 118.44269 155.607244 116.643186 151.812106 C 114.848586 148.021871 112.450882 144.824933 109.454979 142.231098 C 106.463978 139.637264 103.041489 137.53866 99.202222 135.940191 C 95.358051 134.346625 91.361878 133.096289 87.223511 132.198989 C 83.08024 131.301689 78.961485 130.698586 74.867247 130.399486 C 70.773009 130.100386 66.982774 129.904254 63.486736 129.801285 C 63.08957 148.070904 62.716921 164.393921 62.363885 178.765432 C 62.015752 193.141847 61.667619 205.87076 61.314583 216.947268 C 60.96645 228.028679 60.66735 237.590073 60.417283 245.621645 C 60.167216 253.658119 59.892632 260.52271 59.593532 266.210514 C 58.995332 279.488595 58.446165 288.471402 57.94603 293.16384 Z M 57.94603 293.16384 " stroke="#ffffff" stroke-width="23.000025" stroke-opacity="1" stroke-miterlimit="4"/><g fill="#e61f93" fill-opacity="1"><g transform="translate(96.637455, 261.935765)"><g><path d="M 130.015625 -57.609375 C 130.015625 -50.054688 128.484375 -43.394531 125.421875 -37.625 C 122.367188 -31.863281 118.394531 -26.851562 113.5 -22.59375 C 108.613281 -18.34375 103.109375 -14.765625 96.984375 -11.859375 C 90.859375 -8.960938 84.734375 -6.640625 78.609375 -4.890625 C 72.484375 -3.140625 66.632812 -1.882812 61.0625 -1.125 C 55.5 -0.375 50.851562 0 47.125 0 L 14.4375 0 C 15.625 -0.0820312 16.691406 -0.441406 17.640625 -1.078125 C 18.597656 -1.710938 19.4375 -2.566406 20.15625 -3.640625 C 20.875 -4.710938 21.488281 -5.90625 22 -7.21875 C 22.519531 -8.53125 22.976562 -9.898438 23.375 -11.328125 C 24.25 -14.515625 24.769531 -18.210938 24.9375 -22.421875 C 25.164062 -27.585938 25.484375 -35.976562 25.890625 -47.59375 C 26.046875 -52.519531 26.242188 -58.398438 26.484375 -65.234375 C 26.722656 -72.078125 26.976562 -80.03125 27.25 -89.09375 C 27.53125 -98.164062 27.867188 -108.46875 28.265625 -120 C 28.660156 -131.53125 29.097656 -144.453125 29.578125 -158.765625 C 26.640625 -158.609375 23.28125 -158.488281 19.5 -158.40625 C 15.726562 -158.332031 11.492188 -158.375 6.796875 -158.53125 L 29.109375 -171.0625 C 31.804688 -170.820312 34.664062 -170.617188 37.6875 -170.453125 C 40.71875 -170.296875 43.703125 -170.21875 46.640625 -170.21875 C 49.578125 -170.21875 52.359375 -170.238281 54.984375 -170.28125 C 57.609375 -170.320312 59.914062 -170.421875 61.90625 -170.578125 C 64.21875 -170.734375 66.363281 -170.894531 68.34375 -171.0625 C 74.15625 -171.0625 80.0625 -170.582031 86.0625 -169.625 C 92.070312 -168.664062 97.5 -166.894531 102.34375 -164.3125 C 107.195312 -161.726562 111.171875 -158.128906 114.265625 -153.515625 C 117.367188 -148.910156 118.921875 -142.945312 118.921875 -135.625 C 118.523438 -130.0625 116.976562 -124.8125 114.28125 -119.875 C 113.082031 -117.726562 111.609375 -115.5625 109.859375 -113.375 C 108.109375 -111.1875 105.941406 -109.097656 103.359375 -107.109375 C 100.773438 -105.128906 97.734375 -103.300781 94.234375 -101.625 C 90.734375 -99.957031 86.675781 -98.566406 82.0625 -97.453125 C 83.414062 -97.609375 84.707031 -97.726562 85.9375 -97.8125 C 87.175781 -97.894531 88.429688 -97.9375 89.703125 -97.9375 C 94.710938 -97.9375 99.144531 -97.359375 103 -96.203125 C 106.851562 -95.046875 110.191406 -93.515625 113.015625 -91.609375 C 115.835938 -89.703125 118.222656 -87.535156 120.171875 -85.109375 C 122.128906 -82.679688 123.742188 -80.238281 125.015625 -77.78125 C 127.953125 -71.8125 129.617188 -65.085938 130.015625 -57.609375 Z M 46.15625 -29.34375 C 45.84375 -26.71875 45.25 -24.210938 44.375 -21.828125 C 43.65625 -19.765625 42.679688 -17.738281 41.453125 -15.75 C 40.222656 -13.757812 38.613281 -12.328125 36.625 -11.453125 C 44.570312 -10.734375 51.367188 -10.234375 57.015625 -9.953125 C 62.660156 -9.679688 67.273438 -9.546875 70.859375 -9.546875 C 72.679688 -9.546875 74.289062 -9.5625 75.6875 -9.59375 C 77.082031 -9.632812 78.21875 -9.695312 79.09375 -9.78125 C 80.125 -9.863281 80.957031 -9.941406 81.59375 -10.015625 C 84.0625 -10.335938 86.6875 -11.410156 89.46875 -13.234375 C 92.25 -15.066406 94.867188 -17.515625 97.328125 -20.578125 C 99.796875 -23.640625 101.925781 -27.195312 103.71875 -31.25 C 105.507812 -35.3125 106.679688 -39.804688 107.234375 -44.734375 C 107.953125 -51.328125 107.613281 -57.25 106.21875 -62.5 C 104.832031 -67.75 102.390625 -72.203125 98.890625 -75.859375 C 95.390625 -79.523438 90.832031 -82.332031 85.21875 -84.28125 C 79.613281 -86.226562 72.957031 -87.203125 65.25 -87.203125 C 63.894531 -87.203125 62.460938 -87.160156 60.953125 -87.078125 C 59.441406 -86.992188 57.929688 -86.875 56.421875 -86.71875 C 61.585938 -89.1875 66.515625 -91.53125 71.203125 -93.75 C 75.898438 -95.976562 80.019531 -98.660156 83.5625 -101.796875 C 87.101562 -104.941406 89.90625 -108.820312 91.96875 -113.4375 C 94.039062 -118.050781 95.078125 -123.976562 95.078125 -131.21875 C 95.078125 -135.351562 94.359375 -138.929688 92.921875 -141.953125 C 91.492188 -144.972656 89.585938 -147.515625 87.203125 -149.578125 C 84.816406 -151.648438 82.09375 -153.320312 79.03125 -154.59375 C 75.96875 -155.863281 72.785156 -156.859375 69.484375 -157.578125 C 66.179688 -158.296875 62.898438 -158.769531 59.640625 -159 C 56.378906 -159.238281 53.359375 -159.398438 50.578125 -159.484375 C 50.253906 -144.929688 49.953125 -131.925781 49.671875 -120.46875 C 49.398438 -109.019531 49.125 -98.878906 48.84375 -90.046875 C 48.570312 -81.222656 48.332031 -73.609375 48.125 -67.203125 C 47.925781 -60.804688 47.707031 -55.34375 47.46875 -50.8125 C 47 -40.238281 46.5625 -33.082031 46.15625 -29.34375 Z M 46.15625 -29.34375 "/></g></g></g><path stroke-linecap="butt" transform="matrix(0.638842, 0, 0, 0.638842, 150.087489, 97.059054)" fill="none" stroke-linejoin="miter" d="M 197.504448 124.259667 C 195.706764 126.558747 193.511631 128.802796 190.912937 130.997928 C 188.717805 132.899561 185.996819 134.892912 182.756094 136.990212 C 179.509255 139.087511 175.742677 140.983029 171.450246 142.682881 C 172.844369 140.885196 172.972775 138.959105 171.823235 136.916837 C 170.673695 134.868454 168.15449 132.997394 164.259506 131.297543 C 160.370636 129.603805 155.099873 128.203568 148.465559 127.109059 C 141.825131 126.008435 133.717205 125.458124 124.129552 125.458124 C 118.540831 125.458124 112.524089 126.032894 106.085442 127.182434 C 99.646795 128.331974 93.287637 130.300867 86.99574 133.095227 C 80.709957 135.889588 74.644299 139.60725 68.80488 144.254326 C 62.965462 148.895288 57.798646 154.685791 53.304433 161.619718 C 48.816336 168.559761 45.245424 176.796093 42.597813 186.328715 C 39.956317 195.861337 38.629454 206.867571 38.629454 219.347418 C 38.629454 231.82115 40.151983 242.802927 43.197042 252.286632 C 46.2421 261.770337 50.283834 269.933295 55.328358 276.769389 C 60.366767 283.605484 66.132811 289.298153 72.620375 293.841282 C 79.107939 298.378296 85.748367 302.022583 92.535545 304.768027 C 99.322723 307.513471 105.987609 309.433447 112.524089 310.53407 C 119.066684 311.634694 124.979478 312.178891 130.268585 312.178891 C 136.358702 312.081058 142.699515 311.634694 149.284912 310.833685 C 154.977581 310.136623 161.238906 309.109375 168.081115 307.764168 C 174.91721 306.418962 181.631013 304.443954 188.21641 301.851374 C 178.537038 309.635228 169.548613 315.57248 161.263364 319.669245 C 152.978116 323.759896 145.695657 326.804954 139.40376 328.80442 C 132.115187 331.097385 125.431957 332.393675 119.34184 332.693289 C 104.562913 332.693289 90.640027 330.522615 77.560951 326.181267 C 64.487991 321.839919 53.029278 315.548022 43.197042 307.317804 C 33.364805 299.081472 25.60541 288.97408 19.912741 276.995628 C 14.226187 265.017176 11.382909 251.387789 11.382909 236.113582 C 11.382909 226.629877 12.275637 217.824889 14.073322 209.68639 C 15.871007 201.554006 18.243462 194.08811 21.190687 187.300932 C 24.131798 180.513754 27.452012 174.39918 31.145215 168.957208 C 34.838418 163.515237 38.604996 158.727525 42.451063 154.581843 C 46.291016 150.442276 50.039251 146.975312 53.677423 144.174837 C 57.321709 141.380476 60.495173 139.23426 63.191701 137.73619 C 65.78428 136.244233 69.104494 134.544382 73.146228 132.648864 C 77.187962 130.753345 81.633258 128.827254 86.469887 126.88282 C 91.31263 124.938385 96.430529 123.012294 101.823584 121.116776 C 107.210524 119.221257 112.701412 117.521406 118.290133 116.02945 C 123.878855 114.531379 129.345284 113.332922 134.689423 112.43408 C 140.027446 111.535237 145.096429 111.082759 149.884141 111.082759 C 160.566303 111.082759 169.200082 111.584154 175.791594 112.580829 C 182.376991 113.58362 187.397057 114.806535 190.839562 116.249574 C 194.282068 117.698728 196.428283 119.172341 197.278209 120.670412 C 198.128135 122.168483 198.20151 123.360825 197.504448 124.259667 Z M 197.504448 124.259667 " stroke="#ffffff" stroke-width="23.000025" stroke-opacity="1" stroke-miterlimit="4"/><g fill="#000000" fill-opacity="1"><g transform="translate(150.087489, 307.877069)"><g><path d="M 126.171875 -131.4375 C 125.023438 -129.96875 123.625 -128.53125 121.96875 -127.125 C 120.5625 -125.914062 118.820312 -124.640625 116.75 -123.296875 C 114.675781 -121.960938 112.269531 -120.753906 109.53125 -119.671875 C 110.414062 -120.816406 110.492188 -122.039062 109.765625 -123.34375 C 109.035156 -124.65625 107.425781 -125.851562 104.9375 -126.9375 C 102.445312 -128.019531 99.082031 -128.910156 94.84375 -129.609375 C 90.601562 -130.316406 85.421875 -130.671875 79.296875 -130.671875 C 75.722656 -130.671875 71.878906 -130.300781 67.765625 -129.5625 C 63.660156 -128.832031 59.597656 -127.570312 55.578125 -125.78125 C 51.554688 -124 47.679688 -121.625 43.953125 -118.65625 C 40.222656 -115.695312 36.921875 -112 34.046875 -107.5625 C 31.179688 -103.132812 28.898438 -97.875 27.203125 -91.78125 C 25.515625 -85.6875 24.671875 -78.65625 24.671875 -70.6875 C 24.671875 -62.71875 25.644531 -55.703125 27.59375 -49.640625 C 29.539062 -43.585938 32.125 -38.375 35.34375 -34 C 38.5625 -29.632812 42.242188 -26 46.390625 -23.09375 C 50.535156 -20.195312 54.773438 -17.867188 59.109375 -16.109375 C 63.453125 -14.359375 67.710938 -13.132812 71.890625 -12.4375 C 76.066406 -11.738281 79.84375 -11.390625 83.21875 -11.390625 C 87.113281 -11.453125 91.164062 -11.738281 95.375 -12.25 C 99.007812 -12.6875 103.007812 -13.335938 107.375 -14.203125 C 111.738281 -15.066406 116.023438 -16.328125 120.234375 -17.984375 C 114.054688 -13.003906 108.316406 -9.207031 103.015625 -6.59375 C 97.722656 -3.976562 93.070312 -2.035156 89.0625 -0.765625 C 84.40625 0.703125 80.128906 1.53125 76.234375 1.71875 C 66.796875 1.71875 57.898438 0.332031 49.546875 -2.4375 C 41.191406 -5.207031 33.875 -9.222656 27.59375 -14.484375 C 21.3125 -19.753906 16.351562 -26.210938 12.71875 -33.859375 C 9.082031 -41.515625 7.265625 -50.222656 7.265625 -59.984375 C 7.265625 -66.035156 7.835938 -71.660156 8.984375 -76.859375 C 10.140625 -82.054688 11.65625 -86.820312 13.53125 -91.15625 C 15.414062 -95.5 17.535156 -99.40625 19.890625 -102.875 C 22.253906 -106.351562 24.660156 -109.414062 27.109375 -112.0625 C 29.566406 -114.707031 31.957031 -116.921875 34.28125 -118.703125 C 36.613281 -120.492188 38.644531 -121.867188 40.375 -122.828125 C 42.03125 -123.785156 44.148438 -124.867188 46.734375 -126.078125 C 49.316406 -127.285156 52.148438 -128.507812 55.234375 -129.75 C 58.328125 -131 61.597656 -132.226562 65.046875 -133.4375 C 68.492188 -134.65625 72 -135.738281 75.5625 -136.6875 C 79.132812 -137.644531 82.625 -138.410156 86.03125 -138.984375 C 89.445312 -139.554688 92.6875 -139.84375 95.75 -139.84375 C 102.570312 -139.84375 108.085938 -139.523438 112.296875 -138.890625 C 116.503906 -138.253906 119.707031 -137.472656 121.90625 -136.546875 C 124.113281 -135.617188 125.488281 -134.675781 126.03125 -133.71875 C 126.570312 -132.769531 126.617188 -132.007812 126.171875 -131.4375 Z M 126.171875 -131.4375 "/></g></g></g><g clip-path="url(#c2b5f35080)"><g clip-path="url(#39c995249d)"><path fill="#ffffff" d="M 63.976562 206.894531 L 305.605469 206.894531 L 305.605469 234.582031 L 63.976562 234.582031 Z M 63.976562 206.894531 " fill-opacity="1" fill-rule="nonzero"/></g></g><g clip-path="url(#eb5ca4fe8f)"><path fill="#000000" d="M 192.648438 333.667969 C 114.542969 333.667969 51.273438 269.964844 51.273438 192.292969 C 51.273438 114.625 114.542969 50.917969 192.648438 50.917969 C 270.753906 50.917969 334.023438 114.191406 334.023438 192.292969 C 334.023438 270.398438 270.320312 333.667969 192.648438 333.667969 Z M 192.648438 59.648438 C 119.34375 59.648438 60.003906 118.988281 60.003906 192.292969 C 60.003906 265.601562 119.34375 324.941406 192.648438 324.941406 C 265.957031 324.941406 325.296875 265.601562 325.296875 192.292969 C 325.296875 118.988281 265.519531 59.648438 192.648438 59.648438 Z M 192.648438 59.648438 " fill-opacity="1" fill-rule="nonzero"/></g><g fill="#e61f93" fill-opacity="1"><g transform="translate(110.190034, 228.065419)"><g><path d="M 11.640625 -5.15625 C 11.640625 -4.476562 11.5 -3.878906 11.21875 -3.359375 C 10.945312 -2.847656 10.59375 -2.398438 10.15625 -2.015625 C 9.71875 -1.640625 9.222656 -1.320312 8.671875 -1.0625 C 8.128906 -0.800781 7.582031 -0.59375 7.03125 -0.4375 C 6.488281 -0.28125 5.96875 -0.164062 5.46875 -0.09375 C 4.96875 -0.03125 4.550781 0 4.21875 0 L 1.296875 0 C 1.398438 -0.0078125 1.492188 -0.0390625 1.578125 -0.09375 C 1.660156 -0.15625 1.734375 -0.234375 1.796875 -0.328125 C 1.867188 -0.421875 1.925781 -0.523438 1.96875 -0.640625 C 2.019531 -0.765625 2.0625 -0.890625 2.09375 -1.015625 C 2.175781 -1.296875 2.222656 -1.628906 2.234375 -2.015625 C 2.253906 -2.472656 2.28125 -3.222656 2.3125 -4.265625 C 2.332031 -4.703125 2.351562 -5.226562 2.375 -5.84375 C 2.394531 -6.457031 2.414062 -7.171875 2.4375 -7.984375 C 2.46875 -8.796875 2.5 -9.71875 2.53125 -10.75 C 2.5625 -11.78125 2.601562 -12.9375 2.65625 -14.21875 C 2.382812 -14.195312 2.078125 -14.179688 1.734375 -14.171875 C 1.398438 -14.171875 1.023438 -14.175781 0.609375 -14.1875 L 2.609375 -15.3125 C 2.847656 -15.289062 3.101562 -15.269531 3.375 -15.25 C 3.644531 -15.238281 3.910156 -15.234375 4.171875 -15.234375 C 4.441406 -15.234375 4.691406 -15.234375 4.921875 -15.234375 C 5.160156 -15.242188 5.367188 -15.257812 5.546875 -15.28125 C 5.753906 -15.289062 5.945312 -15.300781 6.125 -15.3125 C 6.644531 -15.3125 7.171875 -15.269531 7.703125 -15.1875 C 8.242188 -15.101562 8.726562 -14.941406 9.15625 -14.703125 C 9.59375 -14.472656 9.953125 -14.148438 10.234375 -13.734375 C 10.515625 -13.328125 10.65625 -12.796875 10.65625 -12.140625 C 10.613281 -11.640625 10.472656 -11.171875 10.234375 -10.734375 C 10.128906 -10.546875 10 -10.351562 9.84375 -10.15625 C 9.6875 -9.957031 9.488281 -9.769531 9.25 -9.59375 C 9.019531 -9.414062 8.75 -9.25 8.4375 -9.09375 C 8.125 -8.945312 7.757812 -8.820312 7.34375 -8.71875 C 7.46875 -8.738281 7.582031 -8.75 7.6875 -8.75 C 7.800781 -8.757812 7.914062 -8.765625 8.03125 -8.765625 C 8.476562 -8.765625 8.875 -8.710938 9.21875 -8.609375 C 9.5625 -8.503906 9.859375 -8.367188 10.109375 -8.203125 C 10.367188 -8.035156 10.582031 -7.84375 10.75 -7.625 C 10.925781 -7.40625 11.070312 -7.1875 11.1875 -6.96875 C 11.457031 -6.425781 11.609375 -5.820312 11.640625 -5.15625 Z M 4.140625 -2.625 C 4.109375 -2.394531 4.050781 -2.171875 3.96875 -1.953125 C 3.90625 -1.765625 3.816406 -1.582031 3.703125 -1.40625 C 3.597656 -1.226562 3.457031 -1.101562 3.28125 -1.03125 C 3.988281 -0.957031 4.59375 -0.910156 5.09375 -0.890625 C 5.601562 -0.867188 6.019531 -0.859375 6.34375 -0.859375 C 6.507812 -0.859375 6.65625 -0.859375 6.78125 -0.859375 C 6.90625 -0.859375 7.003906 -0.863281 7.078125 -0.875 C 7.171875 -0.882812 7.25 -0.890625 7.3125 -0.890625 C 7.53125 -0.921875 7.765625 -1.019531 8.015625 -1.1875 C 8.265625 -1.351562 8.5 -1.570312 8.71875 -1.84375 C 8.9375 -2.113281 9.125 -2.429688 9.28125 -2.796875 C 9.445312 -3.160156 9.554688 -3.5625 9.609375 -4 C 9.671875 -4.59375 9.640625 -5.125 9.515625 -5.59375 C 9.390625 -6.0625 9.171875 -6.457031 8.859375 -6.78125 C 8.546875 -7.113281 8.132812 -7.367188 7.625 -7.546875 C 7.125 -7.722656 6.53125 -7.8125 5.84375 -7.8125 C 5.71875 -7.8125 5.585938 -7.804688 5.453125 -7.796875 C 5.316406 -7.785156 5.179688 -7.773438 5.046875 -7.765625 C 5.515625 -7.984375 5.957031 -8.191406 6.375 -8.390625 C 6.789062 -8.585938 7.15625 -8.828125 7.46875 -9.109375 C 7.789062 -9.390625 8.046875 -9.738281 8.234375 -10.15625 C 8.421875 -10.570312 8.515625 -11.101562 8.515625 -11.75 C 8.515625 -12.125 8.445312 -12.441406 8.3125 -12.703125 C 8.1875 -12.972656 8.015625 -13.203125 7.796875 -13.390625 C 7.585938 -13.578125 7.347656 -13.726562 7.078125 -13.84375 C 6.804688 -13.957031 6.519531 -14.046875 6.21875 -14.109375 C 5.925781 -14.171875 5.632812 -14.210938 5.34375 -14.234375 C 5.050781 -14.253906 4.78125 -14.269531 4.53125 -14.28125 C 4.5 -12.976562 4.46875 -11.8125 4.4375 -10.78125 C 4.414062 -9.757812 4.394531 -8.851562 4.375 -8.0625 C 4.351562 -7.269531 4.332031 -6.585938 4.3125 -6.015625 C 4.289062 -5.441406 4.269531 -4.953125 4.25 -4.546875 C 4.207031 -3.597656 4.171875 -2.957031 4.140625 -2.625 Z M 4.140625 -2.625 "/></g></g></g><g fill="#e61f93" fill-opacity="1"><g transform="translate(124.247578, 228.065419)"><g><path d="M 9.390625 -8.375 C 9.328125 -8.34375 9.226562 -8.289062 9.09375 -8.21875 C 8.976562 -8.144531 8.816406 -8.035156 8.609375 -7.890625 C 8.398438 -7.753906 8.125 -7.566406 7.78125 -7.328125 C 7.84375 -7.429688 7.84375 -7.507812 7.78125 -7.5625 C 7.71875 -7.625 7.640625 -7.664062 7.546875 -7.6875 C 7.421875 -7.71875 7.273438 -7.726562 7.109375 -7.71875 C 6.859375 -7.695312 6.488281 -7.671875 6 -7.640625 C 5.519531 -7.617188 4.976562 -7.597656 4.375 -7.578125 C 4.375 -6.429688 4.367188 -5.5 4.359375 -4.78125 C 4.347656 -4.070312 4.335938 -3.519531 4.328125 -3.125 C 4.304688 -2.644531 4.289062 -2.296875 4.28125 -2.078125 C 4.269531 -1.941406 4.226562 -1.804688 4.15625 -1.671875 C 4.09375 -1.546875 4 -1.414062 3.875 -1.28125 C 3.757812 -1.144531 3.585938 -1.023438 3.359375 -0.921875 L 8.203125 -0.921875 C 8.429688 -0.921875 8.660156 -0.9375 8.890625 -0.96875 C 9.097656 -0.988281 9.3125 -1.019531 9.53125 -1.0625 C 9.757812 -1.113281 9.976562 -1.191406 10.1875 -1.296875 C 9.832031 -0.960938 9.476562 -0.703125 9.125 -0.515625 C 8.78125 -0.335938 8.460938 -0.210938 8.171875 -0.140625 C 7.828125 -0.046875 7.503906 0.00390625 7.203125 0.015625 C 6.503906 0.015625 5.84375 0.0195312 5.21875 0.03125 C 4.601562 0.0390625 4.046875 0.0546875 3.546875 0.078125 C 3.046875 0.0976562 2.617188 0.125 2.265625 0.15625 C 1.910156 0.1875 1.65625 0.222656 1.5 0.265625 C 1.726562 0.046875 1.90625 -0.164062 2.03125 -0.375 C 2.15625 -0.59375 2.25 -0.832031 2.3125 -1.09375 C 2.375 -1.363281 2.410156 -1.660156 2.421875 -1.984375 C 2.441406 -2.316406 2.453125 -2.710938 2.453125 -3.171875 L 2.453125 -7.546875 C 2.242188 -7.546875 2.039062 -7.550781 1.84375 -7.5625 C 1.644531 -7.570312 1.453125 -7.582031 1.265625 -7.59375 L 2.453125 -8.203125 C 2.453125 -8.585938 2.445312 -8.988281 2.4375 -9.40625 C 2.4375 -9.832031 2.4375 -10.285156 2.4375 -10.765625 C 2.4375 -11.253906 2.429688 -11.78125 2.421875 -12.34375 C 2.421875 -12.90625 2.421875 -13.515625 2.421875 -14.171875 C 2.097656 -14.171875 1.796875 -14.171875 1.515625 -14.171875 C 1.234375 -14.179688 0.96875 -14.195312 0.71875 -14.21875 L 2.71875 -15.28125 C 4.070312 -15.28125 5.222656 -15.285156 6.171875 -15.296875 C 7.128906 -15.316406 7.925781 -15.335938 8.5625 -15.359375 C 9.28125 -15.390625 9.882812 -15.414062 10.375 -15.4375 C 10.613281 -15.4375 10.769531 -15.414062 10.84375 -15.375 C 10.925781 -15.34375 10.957031 -15.300781 10.9375 -15.25 C 10.925781 -15.207031 10.882812 -15.160156 10.8125 -15.109375 C 10.75 -15.066406 10.6875 -15.03125 10.625 -15 C 10.570312 -14.976562 10.46875 -14.921875 10.3125 -14.828125 C 10.175781 -14.742188 9.984375 -14.617188 9.734375 -14.453125 C 9.492188 -14.285156 9.15625 -14.0625 8.71875 -13.78125 C 8.863281 -13.9375 8.925781 -14.050781 8.90625 -14.125 C 8.882812 -14.195312 8.835938 -14.253906 8.765625 -14.296875 C 8.671875 -14.328125 8.539062 -14.34375 8.375 -14.34375 C 8.238281 -14.332031 8.035156 -14.320312 7.765625 -14.3125 C 7.492188 -14.300781 7.175781 -14.285156 6.8125 -14.265625 C 6.457031 -14.253906 6.066406 -14.238281 5.640625 -14.21875 C 5.222656 -14.207031 4.796875 -14.195312 4.359375 -14.1875 C 4.367188 -13.050781 4.375 -12.03125 4.375 -11.125 C 4.375 -10.21875 4.375 -9.390625 4.375 -8.640625 C 5.101562 -8.648438 5.753906 -8.660156 6.328125 -8.671875 C 6.910156 -8.691406 7.410156 -8.710938 7.828125 -8.734375 C 8.316406 -8.765625 8.75 -8.789062 9.125 -8.8125 C 9.351562 -8.820312 9.503906 -8.804688 9.578125 -8.765625 C 9.660156 -8.734375 9.695312 -8.691406 9.6875 -8.640625 C 9.675781 -8.585938 9.632812 -8.535156 9.5625 -8.484375 C 9.5 -8.429688 9.441406 -8.394531 9.390625 -8.375 Z M 9.390625 -8.375 "/></g></g></g><g fill="#e61f93" fill-opacity="1"><g transform="translate(137.066551, 228.065419)"><g><path d="M 4.265625 -1.109375 C 3.890625 -0.898438 3.523438 -0.722656 3.171875 -0.578125 C 2.828125 -0.429688 2.503906 -0.316406 2.203125 -0.234375 C 1.910156 -0.148438 1.644531 -0.0859375 1.40625 -0.046875 C 1.164062 -0.015625 0.960938 0 0.796875 0 L -0.8125 0 L 0.359375 -0.65625 C 0.472656 -0.8125 0.585938 -0.96875 0.703125 -1.125 C 0.816406 -1.28125 0.914062 -1.425781 1 -1.5625 C 1.082031 -1.707031 1.164062 -1.859375 1.25 -2.015625 C 1.46875 -2.460938 1.796875 -3.1875 2.234375 -4.1875 C 2.410156 -4.613281 2.617188 -5.117188 2.859375 -5.703125 C 3.109375 -6.296875 3.394531 -6.984375 3.71875 -7.765625 C 4.039062 -8.554688 4.394531 -9.445312 4.78125 -10.4375 C 5.175781 -11.4375 5.613281 -12.554688 6.09375 -13.796875 L 7.953125 -15.515625 L 12.140625 -1.3125 C 12.441406 -1.238281 12.726562 -1.1875 13 -1.15625 C 13.28125 -1.132812 13.539062 -1.125 13.78125 -1.125 C 13.90625 -1.125 14.019531 -1.125 14.125 -1.125 C 14.238281 -1.132812 14.332031 -1.144531 14.40625 -1.15625 C 14.488281 -1.164062 14.570312 -1.175781 14.65625 -1.1875 C 14.238281 -0.988281 13.875 -0.816406 13.5625 -0.671875 C 13.257812 -0.523438 12.988281 -0.398438 12.75 -0.296875 C 12.519531 -0.203125 12.300781 -0.128906 12.09375 -0.078125 C 11.894531 -0.0234375 11.691406 0 11.484375 0 L 9.765625 0 L 10.328125 -0.359375 L 8.625 -6.015625 C 8.414062 -5.953125 8.175781 -5.894531 7.90625 -5.84375 C 7.632812 -5.789062 7.3125 -5.742188 6.9375 -5.703125 C 6.5625 -5.660156 6.125 -5.617188 5.625 -5.578125 C 5.132812 -5.546875 4.566406 -5.515625 3.921875 -5.484375 C 3.617188 -4.859375 3.34375 -4.296875 3.09375 -3.796875 C 2.84375 -3.304688 2.617188 -2.878906 2.421875 -2.515625 C 2.222656 -2.148438 2.046875 -1.84375 1.890625 -1.59375 C 1.742188 -1.351562 1.613281 -1.15625 1.5 -1 C 1.625 -0.976562 1.757812 -0.960938 1.90625 -0.953125 C 2.0625 -0.941406 2.210938 -0.9375 2.359375 -0.9375 C 2.585938 -0.9375 2.8125 -0.945312 3.03125 -0.96875 C 3.257812 -0.988281 3.46875 -1.007812 3.65625 -1.03125 C 3.863281 -1.050781 4.066406 -1.078125 4.265625 -1.109375 Z M 5.75 -6.765625 C 6.71875 -6.765625 7.59375 -6.785156 8.375 -6.828125 L 6.734375 -12.25 C 6.296875 -11.113281 5.894531 -10.097656 5.53125 -9.203125 C 5.164062 -8.316406 4.816406 -7.503906 4.484375 -6.765625 Z M 5.75 -6.765625 "/></g></g></g><g fill="#e61f93" fill-opacity="1"><g transform="translate(152.682986, 228.065419)"><g><path d="M 6.078125 -15.421875 C 5.796875 -15.222656 5.476562 -15.015625 5.125 -14.796875 C 4.78125 -14.578125 4.453125 -14.398438 4.140625 -14.265625 C 4.109375 -13.347656 4.082031 -12.515625 4.0625 -11.765625 C 4.039062 -11.023438 4.019531 -10.351562 4 -9.75 C 3.988281 -9.144531 3.976562 -8.609375 3.96875 -8.140625 C 3.96875 -7.679688 3.960938 -7.28125 3.953125 -6.9375 C 3.941406 -6.125 3.9375 -5.503906 3.9375 -5.078125 C 3.925781 -4.566406 4 -4.070312 4.15625 -3.59375 C 4.3125 -3.125 4.566406 -2.695312 4.921875 -2.3125 C 5.273438 -1.9375 5.734375 -1.632812 6.296875 -1.40625 C 6.867188 -1.175781 7.5625 -1.0625 8.375 -1.0625 C 8.8125 -1.082031 9.269531 -1.148438 9.75 -1.265625 C 10.15625 -1.359375 10.601562 -1.503906 11.09375 -1.703125 C 11.582031 -1.910156 12.066406 -2.203125 12.546875 -2.578125 L 12.546875 -14.125 C 12.441406 -14.144531 12.332031 -14.15625 12.21875 -14.15625 C 12.113281 -14.15625 12.015625 -14.15625 11.921875 -14.15625 C 11.722656 -14.15625 11.523438 -14.148438 11.328125 -14.140625 C 11.128906 -14.128906 10.945312 -14.113281 10.78125 -14.09375 C 11.125 -14.382812 11.421875 -14.609375 11.671875 -14.765625 C 11.929688 -14.921875 12.15625 -15.039062 12.34375 -15.125 C 12.5625 -15.207031 12.75 -15.257812 12.90625 -15.28125 C 13.039062 -15.28125 13.207031 -15.28125 13.40625 -15.28125 C 13.613281 -15.28125 13.832031 -15.285156 14.0625 -15.296875 C 14.300781 -15.304688 14.539062 -15.316406 14.78125 -15.328125 C 15.019531 -15.335938 15.238281 -15.347656 15.4375 -15.359375 C 15.644531 -15.367188 15.820312 -15.378906 15.96875 -15.390625 C 16.113281 -15.398438 16.207031 -15.410156 16.25 -15.421875 C 16.007812 -15.242188 15.734375 -15.054688 15.421875 -14.859375 C 15.109375 -14.660156 14.8125 -14.5 14.53125 -14.375 L 14.53125 -3.359375 C 14.519531 -3.015625 14.5 -2.691406 14.46875 -2.390625 C 14.425781 -2.140625 14.375 -1.890625 14.3125 -1.640625 C 14.257812 -1.390625 14.171875 -1.21875 14.046875 -1.125 C 14.441406 -1.070312 14.789062 -1.035156 15.09375 -1.015625 C 15.40625 -1.003906 15.675781 -1 15.90625 -1 C 16.3125 -1 16.601562 -1.015625 16.78125 -1.046875 C 16.957031 -1.078125 17.054688 -1.097656 17.078125 -1.109375 C 16.742188 -0.921875 16.4375 -0.753906 16.15625 -0.609375 C 15.882812 -0.472656 15.625 -0.359375 15.375 -0.265625 C 15.125 -0.179688 14.882812 -0.113281 14.65625 -0.0625 C 14.425781 -0.0195312 14.191406 0 13.953125 0 L 11.875 0 C 12.039062 -0.0507812 12.164062 -0.171875 12.25 -0.359375 C 12.34375 -0.554688 12.410156 -0.757812 12.453125 -0.96875 C 12.503906 -1.207031 12.535156 -1.46875 12.546875 -1.75 L 12.546875 -2.25 C 11.785156 -1.632812 11.0625 -1.164062 10.375 -0.84375 C 9.695312 -0.519531 9.09375 -0.28125 8.5625 -0.125 C 7.9375 0.0507812 7.347656 0.148438 6.796875 0.171875 C 5.898438 0.171875 5.144531 0.0507812 4.53125 -0.1875 C 3.925781 -0.425781 3.441406 -0.757812 3.078125 -1.1875 C 2.710938 -1.613281 2.453125 -2.125 2.296875 -2.71875 C 2.148438 -3.320312 2.085938 -3.984375 2.109375 -4.703125 C 2.097656 -5.296875 2.097656 -6.039062 2.109375 -6.9375 C 2.117188 -7.695312 2.128906 -8.671875 2.140625 -9.859375 C 2.160156 -11.046875 2.191406 -12.476562 2.234375 -14.15625 L 1.75 -14.15625 C 1.550781 -14.15625 1.351562 -14.148438 1.15625 -14.140625 C 0.957031 -14.128906 0.773438 -14.113281 0.609375 -14.09375 C 0.941406 -14.382812 1.238281 -14.609375 1.5 -14.765625 C 1.757812 -14.921875 1.984375 -15.039062 2.171875 -15.125 C 2.378906 -15.207031 2.566406 -15.257812 2.734375 -15.28125 C 2.867188 -15.28125 3.039062 -15.28125 3.25 -15.28125 C 3.457031 -15.28125 3.675781 -15.285156 3.90625 -15.296875 C 4.132812 -15.304688 4.367188 -15.316406 4.609375 -15.328125 C 4.847656 -15.335938 5.066406 -15.347656 5.265625 -15.359375 C 5.472656 -15.367188 5.644531 -15.378906 5.78125 -15.390625 C 5.925781 -15.398438 6.023438 -15.410156 6.078125 -15.421875 Z M 17.078125 -1.109375 L 17.078125 -1.125 L 17.09375 -1.125 C 17.09375 -1.125 17.097656 -1.125 17.109375 -1.125 Z M 17.078125 -1.109375 "/></g></g></g><g fill="#e61f93" fill-opacity="1"><g transform="translate(171.289075, 228.065419)"><g><path d="M 13.5625 -14.921875 C 13.488281 -14.878906 13.367188 -14.8125 13.203125 -14.71875 C 13.054688 -14.632812 12.859375 -14.519531 12.609375 -14.375 C 12.367188 -14.226562 12.050781 -14.046875 11.65625 -13.828125 C 11.78125 -13.984375 11.835938 -14.09375 11.828125 -14.15625 C 11.816406 -14.226562 11.785156 -14.273438 11.734375 -14.296875 C 11.660156 -14.316406 11.5625 -14.316406 11.4375 -14.296875 C 11.363281 -14.285156 11.207031 -14.269531 10.96875 -14.25 C 10.738281 -14.238281 10.445312 -14.222656 10.09375 -14.203125 C 9.75 -14.191406 9.347656 -14.175781 8.890625 -14.15625 C 8.441406 -14.144531 7.972656 -14.132812 7.484375 -14.125 C 7.453125 -12.9375 7.425781 -11.875 7.40625 -10.9375 C 7.382812 -10 7.363281 -9.164062 7.34375 -8.4375 C 7.320312 -7.707031 7.304688 -7.078125 7.296875 -6.546875 C 7.285156 -6.015625 7.28125 -5.5625 7.28125 -5.1875 C 7.25 -4.300781 7.234375 -3.6875 7.234375 -3.34375 C 7.234375 -3.082031 7.203125 -2.820312 7.140625 -2.5625 C 7.078125 -2.34375 6.988281 -2.101562 6.875 -1.84375 C 6.757812 -1.59375 6.597656 -1.367188 6.390625 -1.171875 C 6.523438 -1.148438 6.648438 -1.132812 6.765625 -1.125 C 6.890625 -1.125 7.015625 -1.125 7.140625 -1.125 C 7.472656 -1.125 7.769531 -1.140625 8.03125 -1.171875 C 8.300781 -1.210938 8.53125 -1.25 8.71875 -1.28125 C 8.914062 -1.3125 9.070312 -1.34375 9.1875 -1.375 C 9.3125 -1.414062 9.382812 -1.445312 9.40625 -1.46875 C 9.03125 -1.207031 8.71875 -0.984375 8.46875 -0.796875 C 8.21875 -0.609375 7.992188 -0.457031 7.796875 -0.34375 C 7.597656 -0.226562 7.398438 -0.140625 7.203125 -0.078125 C 7.015625 -0.0234375 6.789062 0 6.53125 0 C 6.195312 0 5.910156 -0.0078125 5.671875 -0.03125 C 5.429688 -0.0625 5.191406 -0.078125 4.953125 -0.078125 C 4.828125 -0.078125 4.703125 -0.0703125 4.578125 -0.0625 C 4.453125 -0.0507812 4.3125 -0.03125 4.15625 0 C 4.351562 -0.164062 4.535156 -0.347656 4.703125 -0.546875 C 4.867188 -0.753906 5.007812 -1.003906 5.125 -1.296875 C 5.238281 -1.585938 5.328125 -1.9375 5.390625 -2.34375 C 5.453125 -2.75 5.484375 -3.242188 5.484375 -3.828125 L 5.484375 -14.0625 C 4.867188 -14.050781 4.265625 -14.035156 3.671875 -14.015625 C 3.078125 -14.003906 2.539062 -13.992188 2.0625 -13.984375 C 1.582031 -13.972656 1.179688 -13.957031 0.859375 -13.9375 C 0.535156 -13.925781 0.332031 -13.921875 0.25 -13.921875 C 0.0507812 -13.898438 -0.0859375 -13.90625 -0.171875 -13.9375 C -0.265625 -13.976562 -0.304688 -14.035156 -0.296875 -14.109375 C -0.285156 -14.179688 -0.234375 -14.269531 -0.140625 -14.375 C -0.046875 -14.476562 0.0820312 -14.59375 0.25 -14.71875 L 1.703125 -15.78125 C 1.597656 -15.644531 1.566406 -15.546875 1.609375 -15.484375 C 1.648438 -15.421875 1.710938 -15.375 1.796875 -15.34375 C 1.890625 -15.300781 2.019531 -15.28125 2.1875 -15.28125 C 2.300781 -15.28125 2.53125 -15.28125 2.875 -15.28125 C 3.226562 -15.289062 3.65625 -15.300781 4.15625 -15.3125 C 4.65625 -15.320312 5.210938 -15.332031 5.828125 -15.34375 C 6.441406 -15.351562 7.066406 -15.363281 7.703125 -15.375 C 8.335938 -15.394531 8.957031 -15.410156 9.5625 -15.421875 C 10.175781 -15.441406 10.734375 -15.457031 11.234375 -15.46875 C 11.742188 -15.476562 12.171875 -15.488281 12.515625 -15.5 C 12.867188 -15.507812 13.101562 -15.519531 13.21875 -15.53125 C 13.4375 -15.539062 13.59375 -15.519531 13.6875 -15.46875 C 13.789062 -15.425781 13.847656 -15.367188 13.859375 -15.296875 C 13.867188 -15.234375 13.84375 -15.164062 13.78125 -15.09375 C 13.71875 -15.019531 13.644531 -14.960938 13.5625 -14.921875 Z M 9.40625 -1.46875 C 9.414062 -1.476562 9.425781 -1.484375 9.4375 -1.484375 Z M 9.40625 -1.46875 "/></g></g></g><g fill="#e61f93" fill-opacity="1"><g transform="translate(186.26487, 228.065419)"><g><path d="M 10.34375 -1.203125 C 9.945312 -0.953125 9.566406 -0.742188 9.203125 -0.578125 C 8.835938 -0.410156 8.453125 -0.273438 8.046875 -0.171875 C 7.640625 -0.078125 7.195312 -0.015625 6.71875 0.015625 C 6.25 0.0546875 5.707031 0.078125 5.09375 0.078125 C 5.21875 -0.015625 5.316406 -0.109375 5.390625 -0.203125 C 5.460938 -0.304688 5.519531 -0.414062 5.5625 -0.53125 C 5.601562 -0.65625 5.632812 -0.800781 5.65625 -0.96875 C 5.675781 -1.144531 5.695312 -1.359375 5.71875 -1.609375 C 5.71875 -1.804688 5.722656 -2.117188 5.734375 -2.546875 C 5.742188 -2.898438 5.757812 -3.378906 5.78125 -3.984375 C 5.8125 -4.597656 5.847656 -5.382812 5.890625 -6.34375 C 5.109375 -7.695312 4.441406 -8.835938 3.890625 -9.765625 C 3.347656 -10.703125 2.890625 -11.472656 2.515625 -12.078125 C 2.148438 -12.679688 1.863281 -13.144531 1.65625 -13.46875 C 1.457031 -13.789062 1.304688 -14.023438 1.203125 -14.171875 C 0.992188 -14.148438 0.742188 -14.117188 0.453125 -14.078125 C 0.171875 -14.046875 -0.140625 -14 -0.484375 -13.9375 C -0.0976562 -14.289062 0.242188 -14.5625 0.546875 -14.75 C 0.859375 -14.9375 1.125 -15.070312 1.34375 -15.15625 C 1.601562 -15.257812 1.832031 -15.3125 2.03125 -15.3125 C 2.28125 -15.3125 2.554688 -15.316406 2.859375 -15.328125 C 3.160156 -15.335938 3.453125 -15.359375 3.734375 -15.390625 C 4.023438 -15.421875 4.285156 -15.457031 4.515625 -15.5 C 4.742188 -15.539062 4.914062 -15.585938 5.03125 -15.640625 C 4.726562 -15.398438 4.445312 -15.195312 4.1875 -15.03125 C 3.925781 -14.875 3.675781 -14.742188 3.4375 -14.640625 L 7.453125 -7.953125 C 8.003906 -8.859375 8.472656 -9.660156 8.859375 -10.359375 C 9.242188 -11.066406 9.554688 -11.675781 9.796875 -12.1875 C 10.046875 -12.707031 10.234375 -13.132812 10.359375 -13.46875 C 10.484375 -13.800781 10.570312 -14.050781 10.625 -14.21875 C 10.414062 -14.195312 10.128906 -14.175781 9.765625 -14.15625 C 9.398438 -14.132812 8.972656 -14.09375 8.484375 -14.03125 C 8.785156 -14.269531 9.054688 -14.46875 9.296875 -14.625 C 9.546875 -14.789062 9.796875 -14.921875 10.046875 -15.015625 C 10.296875 -15.117188 10.550781 -15.191406 10.8125 -15.234375 C 11.070312 -15.285156 11.367188 -15.3125 11.703125 -15.3125 C 11.929688 -15.3125 12.164062 -15.316406 12.40625 -15.328125 C 12.644531 -15.335938 12.867188 -15.351562 13.078125 -15.375 C 13.296875 -15.394531 13.488281 -15.421875 13.65625 -15.453125 C 13.832031 -15.484375 13.96875 -15.515625 14.0625 -15.546875 C 13.613281 -15.222656 13.21875 -14.972656 12.875 -14.796875 C 12.53125 -14.617188 12.195312 -14.484375 11.875 -14.390625 C 11.46875 -13.472656 11.050781 -12.628906 10.625 -11.859375 C 10.195312 -11.085938 9.796875 -10.398438 9.421875 -9.796875 C 9.046875 -9.203125 8.703125 -8.691406 8.390625 -8.265625 C 8.078125 -7.847656 7.832031 -7.53125 7.65625 -7.3125 C 7.644531 -6.664062 7.628906 -6.09375 7.609375 -5.59375 C 7.597656 -5.09375 7.585938 -4.648438 7.578125 -4.265625 C 7.566406 -3.878906 7.554688 -3.546875 7.546875 -3.265625 C 7.546875 -2.992188 7.546875 -2.765625 7.546875 -2.578125 C 7.523438 -2.128906 7.519531 -1.832031 7.53125 -1.6875 C 7.53125 -1.601562 7.519531 -1.519531 7.5 -1.4375 C 7.488281 -1.351562 7.457031 -1.269531 7.40625 -1.1875 C 7.363281 -1.101562 7.304688 -1.035156 7.234375 -0.984375 C 7.378906 -0.972656 7.515625 -0.96875 7.640625 -0.96875 C 7.773438 -0.96875 7.90625 -0.96875 8.03125 -0.96875 C 8.445312 -0.96875 8.800781 -0.976562 9.09375 -1 C 9.382812 -1.019531 9.625 -1.046875 9.8125 -1.078125 C 10.03125 -1.109375 10.207031 -1.148438 10.34375 -1.203125 Z M 10.34375 -1.203125 "/></g></g></g><g fill="#000000" fill-opacity="1"><g transform="translate(201.209559, 228.065419)"><g><path d="M 14.09375 -14.671875 C 13.957031 -14.515625 13.800781 -14.351562 13.625 -14.1875 C 13.46875 -14.0625 13.269531 -13.921875 13.03125 -13.765625 C 12.800781 -13.617188 12.535156 -13.484375 12.234375 -13.359375 C 12.328125 -13.484375 12.332031 -13.617188 12.25 -13.765625 C 12.175781 -13.921875 12 -14.054688 11.71875 -14.171875 C 11.4375 -14.296875 11.054688 -14.394531 10.578125 -14.46875 C 10.109375 -14.550781 9.535156 -14.59375 8.859375 -14.59375 C 8.453125 -14.59375 8.019531 -14.550781 7.5625 -14.46875 C 7.101562 -14.382812 6.648438 -14.242188 6.203125 -14.046875 C 5.753906 -13.847656 5.320312 -13.582031 4.90625 -13.25 C 4.488281 -12.914062 4.117188 -12.5 3.796875 -12 C 3.484375 -11.507812 3.226562 -10.925781 3.03125 -10.25 C 2.84375 -9.570312 2.75 -8.785156 2.75 -7.890625 C 2.75 -7.003906 2.859375 -6.222656 3.078125 -5.546875 C 3.296875 -4.867188 3.582031 -4.285156 3.9375 -3.796875 C 4.300781 -3.304688 4.710938 -2.898438 5.171875 -2.578125 C 5.640625 -2.253906 6.113281 -1.992188 6.59375 -1.796875 C 7.082031 -1.597656 7.554688 -1.457031 8.015625 -1.375 C 8.484375 -1.300781 8.910156 -1.265625 9.296875 -1.265625 C 9.722656 -1.273438 10.175781 -1.3125 10.65625 -1.375 C 11.0625 -1.414062 11.503906 -1.484375 11.984375 -1.578125 C 12.472656 -1.679688 12.953125 -1.828125 13.421875 -2.015625 C 12.734375 -1.453125 12.09375 -1.023438 11.5 -0.734375 C 10.90625 -0.441406 10.382812 -0.222656 9.9375 -0.078125 C 9.425781 0.078125 8.953125 0.164062 8.515625 0.1875 C 7.460938 0.1875 6.46875 0.0351562 5.53125 -0.265625 C 4.601562 -0.578125 3.785156 -1.023438 3.078125 -1.609375 C 2.378906 -2.203125 1.828125 -2.925781 1.421875 -3.78125 C 1.015625 -4.632812 0.8125 -5.609375 0.8125 -6.703125 C 0.8125 -7.378906 0.875 -8.003906 1 -8.578125 C 1.132812 -9.160156 1.304688 -9.691406 1.515625 -10.171875 C 1.722656 -10.660156 1.957031 -11.097656 2.21875 -11.484375 C 2.476562 -11.867188 2.742188 -12.207031 3.015625 -12.5 C 3.296875 -12.800781 3.566406 -13.050781 3.828125 -13.25 C 4.085938 -13.445312 4.3125 -13.601562 4.5 -13.71875 C 4.6875 -13.820312 4.925781 -13.941406 5.21875 -14.078125 C 5.507812 -14.210938 5.828125 -14.347656 6.171875 -14.484375 C 6.515625 -14.628906 6.878906 -14.769531 7.265625 -14.90625 C 7.648438 -15.039062 8.039062 -15.160156 8.4375 -15.265625 C 8.832031 -15.367188 9.21875 -15.453125 9.59375 -15.515625 C 9.976562 -15.578125 10.34375 -15.609375 10.6875 -15.609375 C 11.445312 -15.609375 12.0625 -15.570312 12.53125 -15.5 C 13.007812 -15.4375 13.367188 -15.351562 13.609375 -15.25 C 13.859375 -15.144531 14.007812 -15.035156 14.0625 -14.921875 C 14.125 -14.816406 14.132812 -14.734375 14.09375 -14.671875 Z M 14.09375 -14.671875 "/></g></g></g><g fill="#000000" fill-opacity="1"><g transform="translate(217.08225, 228.065419)"><g><path d="M 16.03125 -8.28125 C 16.03125 -7.382812 15.878906 -6.550781 15.578125 -5.78125 C 15.285156 -5.007812 14.890625 -4.304688 14.390625 -3.671875 C 13.898438 -3.035156 13.335938 -2.472656 12.703125 -1.984375 C 12.078125 -1.503906 11.4375 -1.097656 10.78125 -0.765625 C 10.125 -0.429688 9.476562 -0.175781 8.84375 0 C 8.207031 0.164062 7.640625 0.25 7.140625 0.25 C 6.710938 0.25 6.257812 0.179688 5.78125 0.046875 C 5.300781 -0.0859375 4.828125 -0.28125 4.359375 -0.53125 C 3.890625 -0.789062 3.441406 -1.113281 3.015625 -1.5 C 2.585938 -1.894531 2.210938 -2.347656 1.890625 -2.859375 C 1.566406 -3.367188 1.304688 -3.9375 1.109375 -4.5625 C 0.921875 -5.195312 0.828125 -5.890625 0.828125 -6.640625 C 0.828125 -7.628906 0.96875 -8.535156 1.25 -9.359375 C 1.53125 -10.191406 1.898438 -10.9375 2.359375 -11.59375 C 2.816406 -12.25 3.335938 -12.820312 3.921875 -13.3125 C 4.515625 -13.8125 5.117188 -14.222656 5.734375 -14.546875 C 6.347656 -14.867188 6.953125 -15.109375 7.546875 -15.265625 C 8.148438 -15.429688 8.691406 -15.515625 9.171875 -15.515625 C 9.671875 -15.515625 10.1875 -15.457031 10.71875 -15.34375 C 11.257812 -15.238281 11.78125 -15.066406 12.28125 -14.828125 C 12.789062 -14.597656 13.269531 -14.296875 13.71875 -13.921875 C 14.175781 -13.546875 14.578125 -13.09375 14.921875 -12.5625 C 15.265625 -12.03125 15.535156 -11.410156 15.734375 -10.703125 C 15.929688 -9.992188 16.03125 -9.1875 16.03125 -8.28125 Z M 14.09375 -7.640625 C 14.09375 -8.421875 13.992188 -9.128906 13.796875 -9.765625 C 13.609375 -10.398438 13.351562 -10.960938 13.03125 -11.453125 C 12.707031 -11.953125 12.332031 -12.378906 11.90625 -12.734375 C 11.476562 -13.097656 11.035156 -13.398438 10.578125 -13.640625 C 10.117188 -13.878906 9.65625 -14.050781 9.1875 -14.15625 C 8.71875 -14.269531 8.269531 -14.328125 7.84375 -14.328125 C 7.175781 -14.328125 6.53125 -14.195312 5.90625 -13.9375 C 5.28125 -13.6875 4.722656 -13.289062 4.234375 -12.75 C 3.742188 -12.21875 3.351562 -11.523438 3.0625 -10.671875 C 2.769531 -9.828125 2.625 -8.816406 2.625 -7.640625 C 2.625 -6.847656 2.738281 -6.132812 2.96875 -5.5 C 3.195312 -4.875 3.492188 -4.320312 3.859375 -3.84375 C 4.234375 -3.363281 4.65625 -2.953125 5.125 -2.609375 C 5.59375 -2.273438 6.066406 -2 6.546875 -1.78125 C 7.023438 -1.570312 7.488281 -1.414062 7.9375 -1.3125 C 8.394531 -1.21875 8.789062 -1.171875 9.125 -1.171875 C 9.457031 -1.171875 9.8125 -1.21875 10.1875 -1.3125 C 10.5625 -1.414062 10.929688 -1.570312 11.296875 -1.78125 C 11.671875 -2 12.023438 -2.28125 12.359375 -2.625 C 12.691406 -2.96875 12.984375 -3.378906 13.234375 -3.859375 C 13.492188 -4.335938 13.703125 -4.890625 13.859375 -5.515625 C 14.015625 -6.140625 14.09375 -6.847656 14.09375 -7.640625 Z M 14.09375 -7.640625 "/></g></g></g><g fill="#000000" fill-opacity="1"><g transform="translate(235.560211, 228.065419)"><g><path d="M 15.59375 -8.578125 C 15.59375 -7.691406 15.441406 -6.863281 15.140625 -6.09375 C 14.847656 -5.332031 14.453125 -4.632812 13.953125 -4 C 13.453125 -3.363281 12.863281 -2.796875 12.1875 -2.296875 C 11.519531 -1.804688 10.8125 -1.390625 10.0625 -1.046875 C 9.3125 -0.703125 8.539062 -0.441406 7.75 -0.265625 C 6.96875 -0.0859375 6.207031 0 5.46875 0 C 5.394531 0.0078125 5.265625 0.015625 5.078125 0.015625 C 4.890625 0.015625 4.671875 0.015625 4.421875 0.015625 C 4.171875 0.015625 3.898438 0.015625 3.609375 0.015625 C 3.316406 0.015625 3.03125 0.015625 2.75 0.015625 C 2.476562 0.015625 2.21875 0.015625 1.96875 0.015625 C 1.726562 0.015625 1.53125 0.0078125 1.375 0 C 1.5 0 1.609375 -0.03125 1.703125 -0.09375 C 1.796875 -0.15625 1.875 -0.238281 1.9375 -0.34375 C 2.007812 -0.457031 2.066406 -0.582031 2.109375 -0.71875 C 2.148438 -0.851562 2.191406 -0.992188 2.234375 -1.140625 C 2.304688 -1.484375 2.347656 -1.867188 2.359375 -2.296875 C 2.359375 -2.828125 2.363281 -3.609375 2.375 -4.640625 C 2.382812 -5.085938 2.390625 -5.609375 2.390625 -6.203125 C 2.398438 -6.804688 2.410156 -7.5 2.421875 -8.28125 C 2.441406 -9.0625 2.460938 -9.9375 2.484375 -10.90625 C 2.503906 -11.882812 2.523438 -12.972656 2.546875 -14.171875 C 2.234375 -14.140625 1.921875 -14.113281 1.609375 -14.09375 C 1.296875 -14.070312 0.96875 -14.070312 0.625 -14.09375 L 2.625 -15.40625 C 2.957031 -15.363281 3.296875 -15.332031 3.640625 -15.3125 C 3.992188 -15.300781 4.335938 -15.296875 4.671875 -15.296875 C 5.304688 -15.296875 5.882812 -15.316406 6.40625 -15.359375 C 6.9375 -15.410156 7.460938 -15.4375 7.984375 -15.4375 C 8.453125 -15.4375 8.96875 -15.398438 9.53125 -15.328125 C 10.09375 -15.253906 10.65625 -15.117188 11.21875 -14.921875 C 11.78125 -14.734375 12.320312 -14.472656 12.84375 -14.140625 C 13.375 -13.816406 13.84375 -13.398438 14.25 -12.890625 C 14.65625 -12.378906 14.976562 -11.769531 15.21875 -11.0625 C 15.46875 -10.351562 15.59375 -9.523438 15.59375 -8.578125 Z M 4.15625 -2.953125 C 4.132812 -2.722656 4.085938 -2.507812 4.015625 -2.3125 C 3.960938 -2.132812 3.878906 -1.941406 3.765625 -1.734375 C 3.648438 -1.535156 3.503906 -1.367188 3.328125 -1.234375 C 4.316406 -1.179688 5.128906 -1.144531 5.765625 -1.125 C 6.410156 -1.113281 6.925781 -1.109375 7.3125 -1.109375 C 8.289062 -1.109375 9.171875 -1.285156 9.953125 -1.640625 C 10.734375 -1.992188 11.394531 -2.46875 11.9375 -3.0625 C 12.488281 -3.664062 12.90625 -4.363281 13.1875 -5.15625 C 13.476562 -5.957031 13.625 -6.804688 13.625 -7.703125 C 13.625 -8.578125 13.507812 -9.351562 13.28125 -10.03125 C 13.050781 -10.71875 12.742188 -11.3125 12.359375 -11.8125 C 11.972656 -12.320312 11.535156 -12.75 11.046875 -13.09375 C 10.554688 -13.445312 10.050781 -13.734375 9.53125 -13.953125 C 9.019531 -14.171875 8.507812 -14.328125 8 -14.421875 C 7.488281 -14.515625 7.035156 -14.5625 6.640625 -14.5625 C 6.210938 -14.5625 5.816406 -14.546875 5.453125 -14.515625 C 5.085938 -14.492188 4.738281 -14.460938 4.40625 -14.421875 C 4.382812 -13.117188 4.363281 -11.960938 4.34375 -10.953125 C 4.320312 -9.941406 4.300781 -9.046875 4.28125 -8.265625 C 4.269531 -7.484375 4.257812 -6.804688 4.25 -6.234375 C 4.238281 -5.671875 4.226562 -5.195312 4.21875 -4.8125 C 4.1875 -3.882812 4.164062 -3.265625 4.15625 -2.953125 Z M 4.15625 -2.953125 "/></g></g></g><g fill="#000000" fill-opacity="1"><g transform="translate(253.600401, 228.065419)"><g><path d="M 9.390625 -8.375 C 9.328125 -8.34375 9.226562 -8.289062 9.09375 -8.21875 C 8.976562 -8.144531 8.816406 -8.035156 8.609375 -7.890625 C 8.398438 -7.753906 8.125 -7.566406 7.78125 -7.328125 C 7.84375 -7.429688 7.84375 -7.507812 7.78125 -7.5625 C 7.71875 -7.625 7.640625 -7.664062 7.546875 -7.6875 C 7.421875 -7.71875 7.273438 -7.726562 7.109375 -7.71875 C 6.859375 -7.695312 6.488281 -7.671875 6 -7.640625 C 5.519531 -7.617188 4.976562 -7.597656 4.375 -7.578125 C 4.375 -6.429688 4.367188 -5.5 4.359375 -4.78125 C 4.347656 -4.070312 4.335938 -3.519531 4.328125 -3.125 C 4.304688 -2.644531 4.289062 -2.296875 4.28125 -2.078125 C 4.269531 -1.941406 4.226562 -1.804688 4.15625 -1.671875 C 4.09375 -1.546875 4 -1.414062 3.875 -1.28125 C 3.757812 -1.144531 3.585938 -1.023438 3.359375 -0.921875 L 8.203125 -0.921875 C 8.429688 -0.921875 8.660156 -0.9375 8.890625 -0.96875 C 9.097656 -0.988281 9.3125 -1.019531 9.53125 -1.0625 C 9.757812 -1.113281 9.976562 -1.191406 10.1875 -1.296875 C 9.832031 -0.960938 9.476562 -0.703125 9.125 -0.515625 C 8.78125 -0.335938 8.460938 -0.210938 8.171875 -0.140625 C 7.828125 -0.046875 7.503906 0.00390625 7.203125 0.015625 C 6.503906 0.015625 5.84375 0.0195312 5.21875 0.03125 C 4.601562 0.0390625 4.046875 0.0546875 3.546875 0.078125 C 3.046875 0.0976562 2.617188 0.125 2.265625 0.15625 C 1.910156 0.1875 1.65625 0.222656 1.5 0.265625 C 1.726562 0.046875 1.90625 -0.164062 2.03125 -0.375 C 2.15625 -0.59375 2.25 -0.832031 2.3125 -1.09375 C 2.375 -1.363281 2.410156 -1.660156 2.421875 -1.984375 C 2.441406 -2.316406 2.453125 -2.710938 2.453125 -3.171875 L 2.453125 -7.546875 C 2.242188 -7.546875 2.039062 -7.550781 1.84375 -7.5625 C 1.644531 -7.570312 1.453125 -7.582031 1.265625 -7.59375 L 2.453125 -8.203125 C 2.453125 -8.585938 2.445312 -8.988281 2.4375 -9.40625 C 2.4375 -9.832031 2.4375 -10.285156 2.4375 -10.765625 C 2.4375 -11.253906 2.429688 -11.78125 2.421875 -12.34375 C 2.421875 -12.90625 2.421875 -13.515625 2.421875 -14.171875 C 2.097656 -14.171875 1.796875 -14.171875 1.515625 -14.171875 C 1.234375 -14.179688 0.96875 -14.195312 0.71875 -14.21875 L 2.71875 -15.28125 C 4.070312 -15.28125 5.222656 -15.285156 6.171875 -15.296875 C 7.128906 -15.316406 7.925781 -15.335938 8.5625 -15.359375 C 9.28125 -15.390625 9.882812 -15.414062 10.375 -15.4375 C 10.613281 -15.4375 10.769531 -15.414062 10.84375 -15.375 C 10.925781 -15.34375 10.957031 -15.300781 10.9375 -15.25 C 10.925781 -15.207031 10.882812 -15.160156 10.8125 -15.109375 C 10.75 -15.066406 10.6875 -15.03125 10.625 -15 C 10.570312 -14.976562 10.46875 -14.921875 10.3125 -14.828125 C 10.175781 -14.742188 9.984375 -14.617188 9.734375 -14.453125 C 9.492188 -14.285156 9.15625 -14.0625 8.71875 -13.78125 C 8.863281 -13.9375 8.925781 -14.050781 8.90625 -14.125 C 8.882812 -14.195312 8.835938 -14.253906 8.765625 -14.296875 C 8.671875 -14.328125 8.539062 -14.34375 8.375 -14.34375 C 8.238281 -14.332031 8.035156 -14.320312 7.765625 -14.3125 C 7.492188 -14.300781 7.175781 -14.285156 6.8125 -14.265625 C 6.457031 -14.253906 6.066406 -14.238281 5.640625 -14.21875 C 5.222656 -14.207031 4.796875 -14.195312 4.359375 -14.1875 C 4.367188 -13.050781 4.375 -12.03125 4.375 -11.125 C 4.375 -10.21875 4.375 -9.390625 4.375 -8.640625 C 5.101562 -8.648438 5.753906 -8.660156 6.328125 -8.671875 C 6.910156 -8.691406 7.410156 -8.710938 7.828125 -8.734375 C 8.316406 -8.765625 8.75 -8.789062 9.125 -8.8125 C 9.351562 -8.820312 9.503906 -8.804688 9.578125 -8.765625 C 9.660156 -8.734375 9.695312 -8.691406 9.6875 -8.640625 C 9.675781 -8.585938 9.632812 -8.535156 9.5625 -8.484375 C 9.5 -8.429688 9.441406 -8.394531 9.390625 -8.375 Z M 9.390625 -8.375 "/></g></g></g></svg>